<svg width="80" height="80" viewBox="0 0 80 80" fill="none" xmlns="http://www.w3.org/2000/svg">
  <!-- Círculo de fundo -->
  <circle cx="40" cy="40" r="35" fill="url(#growthGradient)" opacity="0.1"/>
  <circle cx="40" cy="40" r="30" fill="none" stroke="url(#growthGradient)" stroke-width="2"/>
  
  <!-- Planta crescendo -->
  <g transform="translate(30, 15)">
    <!-- Vaso -->
    <path d="M5 45L15 45L13 50L7 50Z" fill="#8b5cf6"/>
    <rect x="6" y="50" width="8" height="4" fill="#7c3aed" rx="1"/>
    
    <!-- Caule -->
    <rect x="9" y="25" width="2" height="20" fill="#10b981"/>
    
    <!-- Folhas -->
    <ellipse cx="7" cy="30" rx="3" ry="5" fill="#22c55e" transform="rotate(-30 7 30)"/>
    <ellipse cx="13" cy="35" rx="3" ry="5" fill="#16a34a" transform="rotate(30 13 35)"/>
    <ellipse cx="6" cy="40" rx="2.5" ry="4" fill="#22c55e" transform="rotate(-45 6 40)"/>
    
    <!-- Flor no topo -->
    <circle cx="10" cy="25" r="4" fill="#f59e0b"/>
    <circle cx="10" cy="25" r="2" fill="#fbbf24"/>
  </g>
  
  <!-- Gráfico de crescimento -->
  <g transform="translate(45, 25)">
    <!-- Barras do gráfico -->
    <rect x="0" y="20" width="3" height="10" fill="#3b82f6" rx="1"/>
    <rect x="5" y="15" width="3" height="15" fill="#10b981" rx="1"/>
    <rect x="10" y="10" width="3" height="20" fill="#f59e0b" rx="1"/>
    <rect x="15" y="5" width="3" height="25" fill="#ef4444" rx="1"/>
    
    <!-- Linha de tendência -->
    <path d="M1.5 25L6.5 20L11.5 15L16.5 10" stroke="#8b5cf6" stroke-width="2" stroke-linecap="round"/>
    
    <!-- Pontos na linha -->
    <circle cx="1.5" cy="25" r="1.5" fill="#8b5cf6"/>
    <circle cx="6.5" cy="20" r="1.5" fill="#8b5cf6"/>
    <circle cx="11.5" cy="15" r="1.5" fill="#8b5cf6"/>
    <circle cx="16.5" cy="10" r="1.5" fill="#8b5cf6"/>
  </g>
  
  <!-- Setas de crescimento -->
  <g transform="translate(15, 20)">
    <path d="M0 15L5 10L10 15" stroke="#10b981" stroke-width="2" stroke-linecap="round" stroke-linejoin="round" fill="none"/>
    <path d="M5 10L5 20" stroke="#10b981" stroke-width="2" stroke-linecap="round"/>
  </g>
  
  <!-- Gradiente -->
  <defs>
    <linearGradient id="growthGradient" x1="0%" y1="0%" x2="100%" y2="100%">
      <stop offset="0%" style="stop-color:#10b981;stop-opacity:1" />
      <stop offset="50%" style="stop-color:#22c55e;stop-opacity:1" />
      <stop offset="100%" style="stop-color:#16a34a;stop-opacity:1" />
    </linearGradient>
  </defs>
</svg>