<svg width="80" height="80" viewBox="0 0 80 80" fill="none" xmlns="http://www.w3.org/2000/svg">
  <!-- Círculo de fundo -->
  <circle cx="40" cy="40" r="35" fill="url(#investmentGradient)" opacity="0.1"/>
  <circle cx="40" cy="40" r="30" fill="none" stroke="url(#investmentGradient)" stroke-width="2"/>
  
  <!-- Ícone de moedas empilhadas -->
  <g transform="translate(25, 20)">
    <!-- Moeda 1 (base) -->
    <ellipse cx="15" cy="35" rx="12" ry="4" fill="#3b82f6" opacity="0.8"/>
    <ellipse cx="15" cy="33" rx="12" ry="4" fill="#1e40af"/>
    
    <!-- Moeda 2 (meio) -->
    <ellipse cx="15" cy="28" rx="12" ry="4" fill="#3b82f6" opacity="0.8"/>
    <ellipse cx="15" cy="26" rx="12" ry="4" fill="#1e40af"/>
    
    <!-- Moeda 3 (topo) -->
    <ellipse cx="15" cy="21" rx="12" ry="4" fill="#3b82f6" opacity="0.8"/>
    <ellipse cx="15" cy="19" rx="12" ry="4" fill="#1e40af"/>
    
    <!-- Símbolo $ na moeda do topo -->
    <text x="15" y="22" font-family="Arial, sans-serif" font-size="8" font-weight="bold" fill="#ffffff" text-anchor="middle">$</text>
  </g>
  
  <!-- Seta de crescimento -->
  <g transform="translate(50, 15)">
    <path d="M5 25L15 15L25 20L35 10" stroke="#10b981" stroke-width="3" stroke-linecap="round" stroke-linejoin="round" fill="none"/>
    <path d="M30 10L35 5L40 10" stroke="#10b981" stroke-width="2" stroke-linecap="round" stroke-linejoin="round" fill="none"/>
    <path d="M35 5L35 15" stroke="#10b981" stroke-width="2" stroke-linecap="round"/>
  </g>
  
  <!-- Gradiente -->
  <defs>
    <linearGradient id="investmentGradient" x1="0%" y1="0%" x2="100%" y2="100%">
      <stop offset="0%" style="stop-color:#1e40af;stop-opacity:1" />
      <stop offset="100%" style="stop-color:#3b82f6;stop-opacity:1" />
    </linearGradient>
  </defs>
</svg>